<svg width="40" height="40" viewBox="0 0 40 40" fill="none" xmlns="http://www.w3.org/2000/svg">
<path d="M20 30C22.7614 30 25 27.7614 25 25C25 22.2386 22.7614 20 20 20C17.2386 20 15 22.2386 15 25C15 27.7614 17.2386 30 20 30Z" fill="black"/>
<path d="M30 3.33333H9.99999C9.11593 3.33333 8.26809 3.68452 7.64297 4.30964C7.01785 4.93476 6.66666 5.78261 6.66666 6.66666V33.3333C6.66666 34.2174 7.01785 35.0652 7.64297 35.6904C8.26809 36.3155 9.11593 36.6667 9.99999 36.6667H30C30.884 36.6667 31.7319 36.3155 32.357 35.6904C32.9821 35.0652 33.3333 34.2174 33.3333 33.3333V6.66666C33.3333 5.78261 32.9821 4.93476 32.357 4.30964C31.7319 3.68452 30.884 3.33333 30 3.33333ZM20 6.66666C20.6593 6.66666 21.3037 6.86216 21.8519 7.22843C22.4001 7.5947 22.8273 8.1153 23.0796 8.72438C23.3319 9.33347 23.3979 10.0037 23.2693 10.6503C23.1407 11.2969 22.8232 11.8908 22.357 12.357C21.8908 12.8232 21.2969 13.1407 20.6503 13.2693C20.0037 13.3979 19.3335 13.3319 18.7244 13.0796C18.1153 12.8273 17.5947 12.4001 17.2284 11.8519C16.8622 11.3037 16.6667 10.6593 16.6667 10C16.6667 9.11594 17.0178 8.26809 17.643 7.64297C18.2681 7.01785 19.1159 6.66666 20 6.66666ZM20 33.3333C18.3518 33.3333 16.7406 32.8446 15.3702 31.9289C13.9998 31.0132 12.9317 29.7117 12.301 28.189C11.6703 26.6663 11.5052 24.9908 11.8268 23.3742C12.1483 21.7577 12.942 20.2729 14.1074 19.1074C15.2729 17.942 16.7577 17.1483 18.3742 16.8268C19.9907 16.5052 21.6663 16.6703 23.189 17.301C24.7117 17.9317 26.0132 18.9998 26.9289 20.3702C27.8446 21.7407 28.3333 23.3518 28.3333 25C28.3333 27.2101 27.4554 29.3298 25.8925 30.8926C24.3297 32.4554 22.2101 33.3333 20 33.3333Z" fill="black"/>
</svg>
