<svg width="40" height="31" viewBox="0 0 40 31" fill="none" xmlns="http://www.w3.org/2000/svg">
<path d="M30.4 0.999998C27.1669 2.58181 23.6262 3.4352 20.0275 3.5C16.3574 3.43408 12.7473 2.55822 9.455 0.934998C2.9275 0.999998 0.00250244 3.925 0.00250244 10.6V25.6C0.0222169 27.039 0.607737 28.4124 1.63237 29.423C2.657 30.4336 4.03834 31.0001 5.4775 31H6.0575C7.20124 31.0003 8.31636 30.6424 9.2463 29.9766C10.1762 29.3107 10.8743 28.3704 11.2425 27.2875C12.005 25 14.105 21 16.455 21H23.555C25.905 21 28.005 25 28.755 27.25C29.1187 28.3407 29.8159 29.2895 30.748 29.9624C31.6802 30.6353 32.8003 30.9982 33.95 31H34.53C37.555 31 40.005 28.55 40.005 25.525V10.525C40.005 3.925 37.08 0.999998 30.405 0.999998H30.4ZM12.5 13.5H10V16H7.5V13.5H5V11H7.5V8.5H10V11H12.5V13.5ZM25.15 16.275C24.8018 16.2748 24.4571 16.2061 24.1355 16.0727C23.8139 15.9393 23.5217 15.7439 23.2757 15.4976C23.0296 15.2513 22.8344 14.9589 22.7013 14.6372C22.5683 14.3155 22.4998 13.9707 22.5 13.6225C22.5002 13.2743 22.5689 12.9296 22.7023 12.608C22.8357 12.2864 23.0311 11.9942 23.2774 11.7481C23.5237 11.5021 23.8161 11.3069 24.1378 11.1738C24.4595 11.0407 24.8043 10.9723 25.1525 10.9725C25.8557 10.9728 26.5299 11.2525 27.0269 11.7499C27.5238 12.2474 27.8028 12.9218 27.8025 13.625C27.8022 14.3282 27.5225 15.0024 27.0251 15.4993C26.5276 15.9963 25.8532 16.2753 25.15 16.275ZM32.5 16C31.837 16 31.2011 15.7366 30.7322 15.2678C30.2634 14.7989 30 14.163 30 13.5C30 12.837 30.2634 12.2011 30.7322 11.7322C31.2011 11.2634 31.837 11 32.5 11C33.163 11 33.7989 11.2634 34.2678 11.7322C34.7366 12.2011 35 12.837 35 13.5C35 14.163 34.7366 14.7989 34.2678 15.2678C33.7989 15.7366 33.163 16 32.5 16Z" fill="black"/>
</svg>
