<svg width="21" height="21" viewBox="0 0 21 21" fill="none" xmlns="http://www.w3.org/2000/svg">
<g clip-path="url(#clip0_1074_545)">
<path d="M18.8016 2.6373C16.4309 0.643944 12.7682 0.943358 10.5 3.25254C8.23184 0.943358 4.56914 0.639842 2.19844 2.6373C-0.885937 5.23359 -0.434765 9.4664 1.76367 11.71L8.95781 19.0395C9.36797 19.4578 9.91758 19.6916 10.5 19.6916C11.0865 19.6916 11.632 19.4619 12.0422 19.0436L19.2363 11.7141C21.4307 9.47051 21.89 5.23769 18.8016 2.6373ZM17.8336 10.3277L10.6395 17.6572C10.541 17.7557 10.459 17.7557 10.3605 17.6572L3.16641 10.3277C1.66934 8.80195 1.36582 5.91445 3.46582 4.14668C5.06133 2.80547 7.52227 3.00644 9.06445 4.57734L10.5 6.0416L11.9355 4.57734C13.4859 2.99824 15.9469 2.80547 17.5342 4.14258C19.6301 5.91035 19.3184 8.81426 17.8336 10.3277Z" fill="white"/>
</g>
<defs>
<clipPath id="clip0_1074_545">
<rect width="21" height="21" fill="white"/>
</clipPath>
</defs>
</svg>
